<svg id="visual" viewBox="0 0 900 450" width="900" height="450" xmlns="http://www.w3.org/2000/svg" xmlns:xlink="http://www.w3.org/1999/xlink" version="1.1"><rect x="0" y="0" width="900" height="450" fill="#FFFFDD"></rect><path d="M0 86L21.5 83.8C43 81.7 86 77.3 128.8 81.2C171.7 85 214.3 97 257.2 96.8C300 96.7 343 84.3 385.8 83.8C428.7 83.3 471.3 94.7 514.2 95.3C557 96 600 86 642.8 81.2C685.7 76.3 728.3 76.7 771.2 80.5C814 84.3 857 91.7 878.5 95.3L900 99L900 0L878.5 0C857 0 814 0 771.2 0C728.3 0 685.7 0 642.8 0C600 0 557 0 514.2 0C471.3 0 428.7 0 385.8 0C343 0 300 0 257.2 0C214.3 0 171.7 0 128.8 0C86 0 43 0 21.5 0L0 0Z" fill="#d2de32"></path><path d="M0 79L21.5 74.3C43 69.7 86 60.3 128.8 59.2C171.7 58 214.3 65 257.2 68.5C300 72 343 72 385.8 72.2C428.7 72.3 471.3 72.7 514.2 71.3C557 70 600 67 642.8 66.2C685.7 65.3 728.3 66.7 771.2 65.2C814 63.7 857 59.3 878.5 57.2L900 55L900 0L878.5 0C857 0 814 0 771.2 0C728.3 0 685.7 0 642.8 0C600 0 557 0 514.2 0C471.3 0 428.7 0 385.8 0C343 0 300 0 257.2 0C214.3 0 171.7 0 128.8 0C86 0 43 0 21.5 0L0 0Z" fill="#bed750"></path><path d="M0 30L21.5 34.3C43 38.7 86 47.3 128.8 47.5C171.7 47.7 214.3 39.3 257.2 36C300 32.7 343 34.3 385.8 35C428.7 35.7 471.3 35.3 514.2 37C557 38.7 600 42.3 642.8 44.7C685.7 47 728.3 48 771.2 49C814 50 857 51 878.5 51.5L900 52L900 0L878.5 0C857 0 814 0 771.2 0C728.3 0 685.7 0 642.8 0C600 0 557 0 514.2 0C471.3 0 428.7 0 385.8 0C343 0 300 0 257.2 0C214.3 0 171.7 0 128.8 0C86 0 43 0 21.5 0L0 0Z" fill="#aecf67"></path><path d="M0 38L21.5 35.8C43 33.7 86 29.3 128.8 26.7C171.7 24 214.3 23 257.2 23.5C300 24 343 26 385.8 24.7C428.7 23.3 471.3 18.7 514.2 18.7C557 18.7 600 23.3 642.8 23.8C685.7 24.3 728.3 20.7 771.2 22.5C814 24.3 857 31.7 878.5 35.3L900 39L900 0L878.5 0C857 0 814 0 771.2 0C728.3 0 685.7 0 642.8 0C600 0 557 0 514.2 0C471.3 0 428.7 0 385.8 0C343 0 300 0 257.2 0C214.3 0 171.7 0 128.8 0C86 0 43 0 21.5 0L0 0Z" fill="#a2c579"></path></svg>