<svg id="visual" viewBox="0 0 900 450" width="900" height="450" xmlns="http://www.w3.org/2000/svg" xmlns:xlink="http://www.w3.org/1999/xlink" version="1.1"><path d="M0 15L6.5 16.5C13 18 26 21 39 23.2C52 25.3 65 26.7 78 28.2C91 29.7 104 31.3 117.2 32.2C130.3 33 143.7 33 156.8 32.2C170 31.3 183 29.7 196 29.7C209 29.7 222 31.3 235 29.8C248 28.3 261 23.7 274 22.2C287 20.7 300 22.3 313 23.8C326 25.3 339 26.7 352 25.2C365 23.7 378 19.3 391 19.3C404 19.3 417 23.7 430.2 25.2C443.3 26.7 456.7 25.3 469.8 26.2C483 27 496 30 509 31.5C522 33 535 33 548 31.5C561 30 574 27 587 24.7C600 22.3 613 20.7 626 20.7C639 20.7 652 22.3 665 24.7C678 27 691 30 704 29.2C717 28.3 730 23.7 743.2 21.3C756.3 19 769.7 19 782.8 18.3C796 17.7 809 16.3 822 17.8C835 19.3 848 23.7 861 24.3C874 25 887 22 893.5 20.5L900 19L900 0L893.5 0C887 0 874 0 861 0C848 0 835 0 822 0C809 0 796 0 782.8 0C769.7 0 756.3 0 743.2 0C730 0 717 0 704 0C691 0 678 0 665 0C652 0 639 0 626 0C613 0 600 0 587 0C574 0 561 0 548 0C535 0 522 0 509 0C496 0 483 0 469.8 0C456.7 0 443.3 0 430.2 0C417 0 404 0 391 0C378 0 365 0 352 0C339 0 326 0 313 0C300 0 287 0 274 0C261 0 248 0 235 0C222 0 209 0 196 0C183 0 170 0 156.8 0C143.7 0 130.3 0 117.2 0C104 0 91 0 78 0C65 0 52 0 39 0C26 0 13 0 6.5 0L0 0Z" fill="#ffffdd"></path><path d="M0 82L6.5 78.3C13 74.7 26 67.3 39 65.2C52 63 65 66 78 71.2C91 76.3 104 83.7 117.2 88.2C130.3 92.7 143.7 94.3 156.8 90.7C170 87 183 78 196 73.5C209 69 222 69 235 72.7C248 76.3 261 83.7 274 86.7C287 89.7 300 88.3 313 84.7C326 81 339 75 352 75.7C365 76.3 378 83.7 391 83.7C404 83.7 417 76.3 430.2 74.2C443.3 72 456.7 75 469.8 81C483 87 496 96 509 96.7C522 97.3 535 89.7 548 89.7C561 89.7 574 97.3 587 98.2C600 99 613 93 626 92.2C639 91.3 652 95.7 665 95.7C678 95.7 691 91.3 704 89.8C717 88.3 730 89.7 743.2 83.7C756.3 77.7 769.7 64.3 782.8 61.3C796 58.3 809 65.7 822 72.3C835 79 848 85 861 86.5C874 88 887 85 893.5 83.5L900 82L900 17L893.5 18.5C887 20 874 23 861 22.3C848 21.7 835 17.3 822 15.8C809 14.3 796 15.7 782.8 16.3C769.7 17 756.3 17 743.2 19.3C730 21.7 717 26.3 704 27.2C691 28 678 25 665 22.7C652 20.3 639 18.7 626 18.7C613 18.7 600 20.3 587 22.7C574 25 561 28 548 29.5C535 31 522 31 509 29.5C496 28 483 25 469.8 24.2C456.7 23.3 443.3 24.7 430.2 23.2C417 21.7 404 17.3 391 17.3C378 17.3 365 21.7 352 23.2C339 24.7 326 23.3 313 21.8C300 20.3 287 18.7 274 20.2C261 21.7 248 26.3 235 27.8C222 29.3 209 27.7 196 27.7C183 27.7 170 29.3 156.8 30.2C143.7 31 130.3 31 117.2 30.2C104 29.3 91 27.7 78 26.2C65 24.7 52 23.3 39 21.2C26 19 13 16 6.5 14.5L0 13Z" fill="#f8f9d3"></path><path d="M0 114L6.5 110.2C13 106.3 26 98.7 39 97.2C52 95.7 65 100.3 78 107.8C91 115.3 104 125.7 117.2 130.2C130.3 134.7 143.7 133.3 156.8 130.3C170 127.3 183 122.7 196 118.2C209 113.7 222 109.3 235 110.8C248 112.3 261 119.7 274 123.3C287 127 300 127 313 123.3C326 119.7 339 112.3 352 113.2C365 114 378 123 391 123C404 123 417 114 430.2 110.2C443.3 106.3 456.7 107.7 469.8 112.8C483 118 496 127 509 127C522 127 535 118 548 118.8C561 119.7 574 130.3 587 131.8C600 133.3 613 125.7 626 127.2C639 128.7 652 139.3 665 143.2C678 147 691 144 704 142.5C717 141 730 141 743.2 132C756.3 123 769.7 105 782.8 99.7C796 94.3 809 101.7 822 110.7C835 119.7 848 130.3 861 134.8C874 139.3 887 137.7 893.5 136.8L900 136L900 80L893.5 81.5C887 83 874 86 861 84.5C848 83 835 77 822 70.3C809 63.7 796 56.3 782.8 59.3C769.7 62.3 756.3 75.7 743.2 81.7C730 87.7 717 86.3 704 87.8C691 89.3 678 93.7 665 93.7C652 93.7 639 89.3 626 90.2C613 91 600 97 587 96.2C574 95.3 561 87.7 548 87.7C535 87.7 522 95.3 509 94.7C496 94 483 85 469.8 79C456.7 73 443.3 70 430.2 72.2C417 74.3 404 81.7 391 81.7C378 81.7 365 74.3 352 73.7C339 73 326 79 313 82.7C300 86.3 287 87.7 274 84.7C261 81.7 248 74.3 235 70.7C222 67 209 67 196 71.5C183 76 170 85 156.8 88.7C143.7 92.3 130.3 90.7 117.2 86.2C104 81.7 91 74.3 78 69.2C65 64 52 61 39 63.2C26 65.3 13 72.7 6.5 76.3L0 80Z" fill="#f0f4c9"></path><path d="M0 172L6.5 181C13 190 26 208 39 212.5C52 217 65 208 78 208C91 208 104 217 117.2 214.8C130.3 212.7 143.7 199.3 156.8 200.8C170 202.3 183 218.7 196 226.8C209 235 222 235 235 228.3C248 221.7 261 208.3 274 200.2C287 192 300 189 313 188.2C326 187.3 339 188.7 352 189.3C365 190 378 190 391 190C404 190 417 190 430.2 187.8C443.3 185.7 456.7 181.3 469.8 187.3C483 193.3 496 209.7 509 214.8C522 220 535 214 548 220.8C561 227.7 574 247.3 587 251.8C600 256.3 613 245.7 626 246.3C639 247 652 259 665 253C678 247 691 223 704 210.3C717 197.7 730 196.3 743.2 196.3C756.3 196.3 769.7 197.7 782.8 204.3C796 211 809 223 822 223C835 223 848 211 861 210.3C874 209.7 887 220.3 893.5 225.7L900 231L900 134L893.5 134.8C887 135.7 874 137.3 861 132.8C848 128.3 835 117.7 822 108.7C809 99.7 796 92.3 782.8 97.7C769.7 103 756.3 121 743.2 130C730 139 717 139 704 140.5C691 142 678 145 665 141.2C652 137.3 639 126.7 626 125.2C613 123.7 600 131.3 587 129.8C574 128.3 561 117.7 548 116.8C535 116 522 125 509 125C496 125 483 116 469.8 110.8C456.7 105.7 443.3 104.3 430.2 108.2C417 112 404 121 391 121C378 121 365 112 352 111.2C339 110.3 326 117.7 313 121.3C300 125 287 125 274 121.3C261 117.7 248 110.3 235 108.8C222 107.3 209 111.7 196 116.2C183 120.7 170 125.3 156.8 128.3C143.7 131.3 130.3 132.7 117.2 128.2C104 123.7 91 113.3 78 105.8C65 98.3 52 93.7 39 95.2C26 96.7 13 104.3 6.5 108.2L0 112Z" fill="#e8eebf"></path><path d="M0 280L6.5 283.8C13 287.7 26 295.3 39 298.3C52 301.3 65 299.7 78 300.3C91 301 104 304 117.2 301C130.3 298 143.7 289 156.8 284.5C170 280 183 280 196 286.8C209 293.7 222 307.3 235 314.8C248 322.3 261 323.7 274 314.7C287 305.7 300 286.3 313 278.2C326 270 339 273 352 276.7C365 280.3 378 284.7 391 286.8C404 289 417 289 430.2 286C443.3 283 456.7 277 469.8 277.8C483 278.7 496 286.3 509 287.2C522 288 535 282 548 285.7C561 289.3 574 302.7 587 308.7C600 314.7 613 313.3 626 314.2C639 315 652 318 665 315.7C678 313.3 691 305.7 704 301.2C717 296.7 730 295.3 743.2 293.2C756.3 291 769.7 288 782.8 288.7C796 289.3 809 293.7 822 291.3C835 289 848 280 861 275.5C874 271 887 271 893.5 271L900 271L900 229L893.5 223.7C887 218.3 874 207.7 861 208.3C848 209 835 221 822 221C809 221 796 209 782.8 202.3C769.7 195.7 756.3 194.3 743.2 194.3C730 194.3 717 195.7 704 208.3C691 221 678 245 665 251C652 257 639 245 626 244.3C613 243.7 600 254.3 587 249.8C574 245.3 561 225.7 548 218.8C535 212 522 218 509 212.8C496 207.7 483 191.3 469.8 185.3C456.7 179.3 443.3 183.7 430.2 185.8C417 188 404 188 391 188C378 188 365 188 352 187.3C339 186.7 326 185.3 313 186.2C300 187 287 190 274 198.2C261 206.3 248 219.7 235 226.3C222 233 209 233 196 224.8C183 216.7 170 200.3 156.8 198.8C143.7 197.3 130.3 210.7 117.2 212.8C104 215 91 206 78 206C65 206 52 215 39 210.5C26 206 13 188 6.5 179L0 170Z" fill="#e0e9b6"></path><path d="M0 307L6.5 309.3C13 311.7 26 316.3 39 317.8C52 319.3 65 317.7 78 318.3C91 319 104 322 117.2 318.3C130.3 314.7 143.7 304.3 156.8 301.3C170 298.3 183 302.7 196 309.3C209 316 222 325 235 331C248 337 261 340 274 331.8C287 323.7 300 304.3 313 295.3C326 286.3 339 287.7 352 291.3C365 295 378 301 391 303.3C404 305.7 417 304.3 430.2 301.3C443.3 298.3 456.7 293.7 469.8 295.8C483 298 496 307 509 309.3C522 311.7 535 307.3 548 311.8C561 316.3 574 329.7 587 334.2C600 338.7 613 334.3 626 333.7C639 333 652 336 665 334.5C678 333 691 327 704 321.7C717 316.3 730 311.7 743.2 310.2C756.3 308.7 769.7 310.3 782.8 313.3C796 316.3 809 320.7 822 316.2C835 311.7 848 298.3 861 293.2C874 288 887 291 893.5 292.5L900 294L900 269L893.5 269C887 269 874 269 861 273.5C848 278 835 287 822 289.3C809 291.7 796 287.3 782.8 286.7C769.7 286 756.3 289 743.2 291.2C730 293.3 717 294.7 704 299.2C691 303.7 678 311.3 665 313.7C652 316 639 313 626 312.2C613 311.3 600 312.7 587 306.7C574 300.7 561 287.3 548 283.7C535 280 522 286 509 285.2C496 284.3 483 276.7 469.8 275.8C456.7 275 443.3 281 430.2 284C417 287 404 287 391 284.8C378 282.7 365 278.3 352 274.7C339 271 326 268 313 276.2C300 284.3 287 303.7 274 312.7C261 321.7 248 320.3 235 312.8C222 305.3 209 291.7 196 284.8C183 278 170 278 156.8 282.5C143.7 287 130.3 296 117.2 299C104 302 91 299 78 298.3C65 297.7 52 299.3 39 296.3C26 293.3 13 285.7 6.5 281.8L0 278Z" fill="#d8e4ad"></path><path d="M0 325L6.5 331C13 337 26 349 39 352.8C52 356.7 65 352.3 78 352.3C91 352.3 104 356.7 117.2 353.7C130.3 350.7 143.7 340.3 156.8 334.3C170 328.3 183 326.7 196 331.2C209 335.7 222 346.3 235 353.2C248 360 261 363 274 357.7C287 352.3 300 338.7 313 331.8C326 325 339 325 352 328C365 331 378 337 391 338.5C404 340 417 337 430.2 334C443.3 331 456.7 328 469.8 328.8C483 329.7 496 334.3 509 337.3C522 340.3 535 341.7 548 345.3C561 349 574 355 587 355.8C600 356.7 613 352.3 626 351.7C639 351 652 354 665 353.2C678 352.3 691 347.7 704 342.3C717 337 730 331 743.2 329.5C756.3 328 769.7 331 782.8 335.5C796 340 809 346 822 343C835 340 848 328 861 324.3C874 320.7 887 325.3 893.5 327.7L900 330L900 292L893.5 290.5C887 289 874 286 861 291.2C848 296.3 835 309.7 822 314.2C809 318.7 796 314.3 782.8 311.3C769.7 308.3 756.3 306.7 743.2 308.2C730 309.7 717 314.3 704 319.7C691 325 678 331 665 332.5C652 334 639 331 626 331.7C613 332.3 600 336.7 587 332.2C574 327.7 561 314.3 548 309.8C535 305.3 522 309.7 509 307.3C496 305 483 296 469.8 293.8C456.7 291.7 443.3 296.3 430.2 299.3C417 302.3 404 303.7 391 301.3C378 299 365 293 352 289.3C339 285.7 326 284.3 313 293.3C300 302.3 287 321.7 274 329.8C261 338 248 335 235 329C222 323 209 314 196 307.3C183 300.7 170 296.3 156.8 299.3C143.7 302.3 130.3 312.7 117.2 316.3C104 320 91 317 78 316.3C65 315.7 52 317.3 39 315.8C26 314.3 13 309.7 6.5 307.3L0 305Z" fill="#d0dea3"></path><path d="M0 339L6.5 345C13 351 26 363 39 366C52 369 65 363 78 362.2C91 361.3 104 365.7 117.2 364.2C130.3 362.7 143.7 355.3 156.8 351.7C170 348 183 348 196 351C209 354 222 360 235 364.5C248 369 261 372 274 367.5C287 363 300 351 313 346.5C326 342 339 345 352 348C365 351 378 354 391 353.2C404 352.3 417 347.7 430.2 343.8C443.3 340 456.7 337 469.8 337.8C483 338.7 496 343.3 509 347.8C522 352.3 535 356.7 548 361.8C561 367 574 373 587 373.8C600 374.7 613 370.3 626 368.8C639 367.3 652 368.7 665 367.2C678 365.7 691 361.3 704 356.2C717 351 730 345 743.2 342.7C756.3 340.3 769.7 341.7 782.8 346.2C796 350.7 809 358.3 822 356.8C835 355.3 848 344.7 861 342.3C874 340 887 346 893.5 349L900 352L900 328L893.5 325.7C887 323.3 874 318.7 861 322.3C848 326 835 338 822 341C809 344 796 338 782.8 333.5C769.7 329 756.3 326 743.2 327.5C730 329 717 335 704 340.3C691 345.7 678 350.3 665 351.2C652 352 639 349 626 349.7C613 350.3 600 354.7 587 353.8C574 353 561 347 548 343.3C535 339.7 522 338.3 509 335.3C496 332.3 483 327.7 469.8 326.8C456.7 326 443.3 329 430.2 332C417 335 404 338 391 336.5C378 335 365 329 352 326C339 323 326 323 313 329.8C300 336.7 287 350.3 274 355.7C261 361 248 358 235 351.2C222 344.3 209 333.7 196 329.2C183 324.7 170 326.3 156.8 332.3C143.7 338.3 130.3 348.7 117.2 351.7C104 354.7 91 350.3 78 350.3C65 350.3 52 354.7 39 350.8C26 347 13 335 6.5 329L0 323Z" fill="#c7d99b"></path><path d="M0 370L6.5 374.5C13 379 26 388 39 391C52 394 65 391 78 390.3C91 389.7 104 391.3 117.2 388.3C130.3 385.3 143.7 377.7 156.8 375.3C170 373 183 376 196 379C209 382 222 385 235 388.8C248 392.7 261 397.3 274 394.3C287 391.3 300 380.7 313 376.2C326 371.7 339 373.3 352 376.3C365 379.3 378 383.7 391 381.3C404 379 417 370 430.2 367C443.3 364 456.7 367 469.8 370C483 373 496 376 509 377.5C522 379 535 379 548 381.3C561 383.7 574 388.3 587 390.7C600 393 613 393 626 391.5C639 390 652 387 665 385.5C678 384 691 384 704 382.5C717 381 730 378 743.2 375.7C756.3 373.3 769.7 371.7 782.8 374.7C796 377.7 809 385.3 822 385.3C835 385.3 848 377.7 861 375.3C874 373 887 376 893.5 377.5L900 379L900 350L893.5 347C887 344 874 338 861 340.3C848 342.7 835 353.3 822 354.8C809 356.3 796 348.7 782.8 344.2C769.7 339.7 756.3 338.3 743.2 340.7C730 343 717 349 704 354.2C691 359.3 678 363.7 665 365.2C652 366.7 639 365.3 626 366.8C613 368.3 600 372.7 587 371.8C574 371 561 365 548 359.8C535 354.7 522 350.3 509 345.8C496 341.3 483 336.7 469.8 335.8C456.7 335 443.3 338 430.2 341.8C417 345.7 404 350.3 391 351.2C378 352 365 349 352 346C339 343 326 340 313 344.5C300 349 287 361 274 365.5C261 370 248 367 235 362.5C222 358 209 352 196 349C183 346 170 346 156.8 349.7C143.7 353.3 130.3 360.7 117.2 362.2C104 363.7 91 359.3 78 360.2C65 361 52 367 39 364C26 361 13 349 6.5 343L0 337Z" fill="#bed492"></path><path d="M0 402L6.5 406.5C13 411 26 420 39 422.2C52 424.3 65 419.7 78 417.3C91 415 104 415 117.2 414.3C130.3 413.7 143.7 412.3 156.8 413.2C170 414 183 417 196 418.5C209 420 222 420 235 420.7C248 421.3 261 422.7 274 421.8C287 421 300 418 313 416.5C326 415 339 415 352 414.3C365 413.7 378 412.3 391 411.7C404 411 417 411 430.2 411.7C443.3 412.3 456.7 413.7 469.8 413.7C483 413.7 496 412.3 509 413.2C522 414 535 417 548 419.2C561 421.3 574 422.7 587 423.3C600 424 613 424 626 421C639 418 652 412 665 409.8C678 407.7 691 409.3 704 411.7C717 414 730 417 743.2 417.7C756.3 418.3 769.7 416.7 782.8 418.2C796 419.7 809 424.3 822 423.7C835 423 848 417 861 416.2C874 415.3 887 419.7 893.5 421.8L900 424L900 377L893.5 375.5C887 374 874 371 861 373.3C848 375.7 835 383.3 822 383.3C809 383.3 796 375.7 782.8 372.7C769.7 369.7 756.3 371.3 743.2 373.7C730 376 717 379 704 380.5C691 382 678 382 665 383.5C652 385 639 388 626 389.5C613 391 600 391 587 388.7C574 386.3 561 381.7 548 379.3C535 377 522 377 509 375.5C496 374 483 371 469.8 368C456.7 365 443.3 362 430.2 365C417 368 404 377 391 379.3C378 381.7 365 377.3 352 374.3C339 371.3 326 369.7 313 374.2C300 378.7 287 389.3 274 392.3C261 395.3 248 390.7 235 386.8C222 383 209 380 196 377C183 374 170 371 156.8 373.3C143.7 375.7 130.3 383.3 117.2 386.3C104 389.3 91 387.7 78 388.3C65 389 52 392 39 389C26 386 13 377 6.5 372.5L0 368Z" fill="#b5cf89"></path><path d="M0 424L6.5 426.3C13 428.7 26 433.3 39 434.8C52 436.3 65 434.7 78 433.8C91 433 104 433 117.2 431.5C130.3 430 143.7 427 156.8 426.3C170 425.7 183 427.3 196 428.2C209 429 222 429 235 430.5C248 432 261 435 274 436.5C287 438 300 438 313 437.2C326 436.3 339 434.7 352 432.3C365 430 378 427 391 425.5C404 424 417 424 430.2 424.8C443.3 425.7 456.7 427.3 469.8 427.3C483 427.3 496 425.7 509 425.7C522 425.7 535 427.3 548 428.8C561 430.3 574 431.7 587 432.3C600 433 613 433 626 432.3C639 431.7 652 430.3 665 429.7C678 429 691 429 704 429C717 429 730 429 743.2 429C756.3 429 769.7 429 782.8 430.5C796 432 809 435 822 434.2C835 433.3 848 428.7 861 427.8C874 427 887 430 893.5 431.5L900 433L900 422L893.5 419.8C887 417.7 874 413.3 861 414.2C848 415 835 421 822 421.7C809 422.3 796 417.7 782.8 416.2C769.7 414.7 756.3 416.3 743.2 415.7C730 415 717 412 704 409.7C691 407.3 678 405.7 665 407.8C652 410 639 416 626 419C613 422 600 422 587 421.3C574 420.7 561 419.3 548 417.2C535 415 522 412 509 411.2C496 410.3 483 411.7 469.8 411.7C456.7 411.7 443.3 410.3 430.2 409.7C417 409 404 409 391 409.7C378 410.3 365 411.7 352 412.3C339 413 326 413 313 414.5C300 416 287 419 274 419.8C261 420.7 248 419.3 235 418.7C222 418 209 418 196 416.5C183 415 170 412 156.8 411.2C143.7 410.3 130.3 411.7 117.2 412.3C104 413 91 413 78 415.3C65 417.7 52 422.3 39 420.2C26 418 13 409 6.5 404.5L0 400Z" fill="#acca81"></path><path d="M0 451L6.5 451C13 451 26 451 39 451C52 451 65 451 78 451C91 451 104 451 117.2 451C130.3 451 143.7 451 156.8 451C170 451 183 451 196 451C209 451 222 451 235 451C248 451 261 451 274 451C287 451 300 451 313 451C326 451 339 451 352 451C365 451 378 451 391 451C404 451 417 451 430.2 451C443.3 451 456.7 451 469.8 451C483 451 496 451 509 451C522 451 535 451 548 451C561 451 574 451 587 451C600 451 613 451 626 451C639 451 652 451 665 451C678 451 691 451 704 451C717 451 730 451 743.2 451C756.3 451 769.7 451 782.8 451C796 451 809 451 822 451C835 451 848 451 861 451C874 451 887 451 893.5 451L900 451L900 431L893.5 429.5C887 428 874 425 861 425.8C848 426.7 835 431.3 822 432.2C809 433 796 430 782.8 428.5C769.7 427 756.3 427 743.2 427C730 427 717 427 704 427C691 427 678 427 665 427.7C652 428.3 639 429.7 626 430.3C613 431 600 431 587 430.3C574 429.7 561 428.3 548 426.8C535 425.3 522 423.7 509 423.7C496 423.7 483 425.3 469.8 425.3C456.7 425.3 443.3 423.7 430.2 422.8C417 422 404 422 391 423.5C378 425 365 428 352 430.3C339 432.7 326 434.3 313 435.2C300 436 287 436 274 434.5C261 433 248 430 235 428.5C222 427 209 427 196 426.2C183 425.3 170 423.7 156.8 424.3C143.7 425 130.3 428 117.2 429.5C104 431 91 431 78 431.8C65 432.7 52 434.3 39 432.8C26 431.3 13 426.7 6.5 424.3L0 422Z" fill="#a2c579"></path></svg>