<svg id="visual" viewBox="0 0 960 540" width="960" height="540" xmlns="http://www.w3.org/2000/svg" xmlns:xlink="http://www.w3.org/1999/xlink" version="1.1"><path d="M0 131L16 132.7C32 134.3 64 137.7 96 130.3C128 123 160 105 192 96C224 87 256 87 288 88C320 89 352 91 384 98.3C416 105.7 448 118.3 480 117.3C512 116.3 544 101.7 576 99.8C608 98 640 109 672 116.3C704 123.7 736 127.3 768 126.3C800 125.3 832 119.7 864 114.2C896 108.7 928 103.3 944 100.7L960 98L960 0L944 0C928 0 896 0 864 0C832 0 800 0 768 0C736 0 704 0 672 0C640 0 608 0 576 0C544 0 512 0 480 0C448 0 416 0 384 0C352 0 320 0 288 0C256 0 224 0 192 0C160 0 128 0 96 0C64 0 32 0 16 0L0 0Z" fill="#a2c579"></path><path d="M0 293L16 293.8C32 294.7 64 296.3 96 303.5C128 310.7 160 323.3 192 312.5C224 301.7 256 267.3 288 254.7C320 242 352 251 384 263.7C416 276.3 448 292.7 480 292.7C512 292.7 544 276.3 576 270C608 263.7 640 267.3 672 273.7C704 280 736 289 768 295.3C800 301.7 832 305.3 864 311.7C896 318 928 327 944 331.5L960 336L960 96L944 98.7C928 101.3 896 106.7 864 112.2C832 117.7 800 123.3 768 124.3C736 125.3 704 121.7 672 114.3C640 107 608 96 576 97.8C544 99.7 512 114.3 480 115.3C448 116.3 416 103.7 384 96.3C352 89 320 87 288 86C256 85 224 85 192 94C160 103 128 121 96 128.3C64 135.7 32 132.3 16 130.7L0 129Z" fill="#f2f5cb"></path><path d="M0 455L16 455C32 455 64 455 96 456.7C128 458.3 160 461.7 192 459.8C224 458 256 451 288 446.5C320 442 352 440 384 439C416 438 448 438 480 438C512 438 544 438 576 437.2C608 436.3 640 434.7 672 433.8C704 433 736 433 768 441.2C800 449.3 832 465.7 864 473.8C896 482 928 482 944 482L960 482L960 334L944 329.5C928 325 896 316 864 309.7C832 303.3 800 299.7 768 293.3C736 287 704 278 672 271.7C640 265.3 608 261.7 576 268C544 274.3 512 290.7 480 290.7C448 290.7 416 274.3 384 261.7C352 249 320 240 288 252.7C256 265.3 224 299.7 192 310.5C160 321.3 128 308.7 96 301.5C64 294.3 32 292.7 16 291.8L0 291Z" fill="#f2f5cb"></path><path d="M0 541L16 541C32 541 64 541 96 541C128 541 160 541 192 541C224 541 256 541 288 541C320 541 352 541 384 541C416 541 448 541 480 541C512 541 544 541 576 541C608 541 640 541 672 541C704 541 736 541 768 541C800 541 832 541 864 541C896 541 928 541 944 541L960 541L960 480L944 480C928 480 896 480 864 471.8C832 463.7 800 447.3 768 439.2C736 431 704 431 672 431.8C640 432.7 608 434.3 576 435.2C544 436 512 436 480 436C448 436 416 436 384 437C352 438 320 440 288 444.5C256 449 224 456 192 457.8C160 459.7 128 456.3 96 454.7C64 453 32 453 16 453L0 453Z" fill="#a2c579"></path></svg>