<svg id="visual" viewBox="0 0 900 600" width="900" height="600" xmlns="http://www.w3.org/2000/svg" xmlns:xlink="http://www.w3.org/1999/xlink" version="1.1"><rect x="0" y="0" width="900" height="600" fill="#016A70"></rect><path d="M0 428L75 330L150 501L225 470L300 414L375 476L450 447L525 321L600 382L675 438L750 404L825 408L900 449L900 0L825 0L750 0L675 0L600 0L525 0L450 0L375 0L300 0L225 0L150 0L75 0L0 0Z" fill="#ffffdd"></path><path d="M0 367L75 260L150 396L225 296L300 288L375 417L450 409L525 278L600 277L675 359L750 305L825 274L900 367L900 0L825 0L750 0L675 0L600 0L525 0L450 0L375 0L300 0L225 0L150 0L75 0L0 0Z" fill="#eff3c7"></path><path d="M0 264L75 223L150 275L225 236L300 213L375 319L450 340L525 262L600 281L675 298L750 306L825 259L900 210L900 0L825 0L750 0L675 0L600 0L525 0L450 0L375 0L300 0L225 0L150 0L75 0L0 0Z" fill="#dde7b2"></path><path d="M0 238L75 208L150 161L225 277L300 165L375 246L450 151L525 214L600 274L675 257L750 244L825 252L900 210L900 0L825 0L750 0L675 0L600 0L525 0L450 0L375 0L300 0L225 0L150 0L75 0L0 0Z" fill="#cbdb9e"></path><path d="M0 163L75 131L150 136L225 100L300 135L375 150L450 134L525 135L600 176L675 199L750 190L825 188L900 166L900 0L825 0L750 0L675 0L600 0L525 0L450 0L375 0L300 0L225 0L150 0L75 0L0 0Z" fill="#b7d08b"></path><path d="M0 64L75 78L150 106L225 76L300 61L375 82L450 124L525 59L600 81L675 44L750 123L825 47L900 125L900 0L825 0L750 0L675 0L600 0L525 0L450 0L375 0L300 0L225 0L150 0L75 0L0 0Z" fill="#a2c579"></path></svg>