<svg id="visual" viewBox="0 0 960 540" width="960" height="540" xmlns="http://www.w3.org/2000/svg" xmlns:xlink="http://www.w3.org/1999/xlink" version="1.1"><rect x="0" y="0" width="960" height="540" fill="#FFFFFF"></rect><defs><linearGradient id="grad1_0" x1="43.8%" y1="0%" x2="100%" y2="100%"><stop offset="14.444444444444446%" stop-color="#ffffff" stop-opacity="1"></stop><stop offset="85.55555555555554%" stop-color="#ffffff" stop-opacity="1"></stop></linearGradient></defs><defs><linearGradient id="grad2_0" x1="0%" y1="0%" x2="56.3%" y2="100%"><stop offset="14.444444444444446%" stop-color="#ffffff" stop-opacity="1"></stop><stop offset="85.55555555555554%" stop-color="#ffffff" stop-opacity="1"></stop></linearGradient></defs><g transform="translate(960, 0)"><path d="M0 486C-20.6 489.5 -41.3 493.1 -58.6 482.5C-75.9 471.9 -89.9 447.1 -108.9 441.8C-127.8 436.4 -151.7 450.5 -168.8 445.1C-185.9 439.7 -196.2 414.8 -209.1 398.5C-222 382.1 -237.4 374.1 -250.5 362.9C-263.6 351.7 -274.3 337.3 -289.1 326.4C-303.9 315.4 -322.8 308.1 -330.1 292.4C-337.3 276.8 -332.9 252.9 -350.6 242C-368.3 231.1 -408 233.1 -418.8 219.8C-429.6 206.5 -411.5 177.8 -419.8 159.2C-428.2 140.6 -463.1 132.1 -469.9 115.8C-476.8 99.6 -455.7 75.7 -453.7 55.1C-451.7 34.5 -468.8 17.2 -486 0L0 0Z" fill="#A2C579"></path></g><g transform="translate(0, 540)"><path d="M0 -486C15.3 -452.2 30.6 -418.4 51.3 -422.9C72.1 -427.4 98.3 -470.1 116.3 -471.9C134.3 -473.7 144 -434.5 157.1 -414.2C170.2 -394 186.6 -392.6 204.5 -389.6C222.4 -386.6 241.8 -381.9 255.6 -370.3C269.5 -358.8 277.9 -340.3 289.8 -327.1C301.7 -313.9 317.2 -306.1 338.3 -299.7C359.4 -293.4 386.1 -288.6 394.2 -272.1C402.3 -255.6 391.7 -227.3 398.5 -209.1C405.2 -190.9 429.3 -182.9 446 -169.1C462.7 -155.4 471.9 -136.1 470.9 -116.1C469.9 -96 458.8 -75.3 459.6 -55.8C460.4 -36.3 473.2 -18.2 486 0L0 0Z" fill="#A2C579"></path></g></svg>